<svg xmlns="http://www.w3.org/2000/svg" width="91.016" height="70.178" viewBox="0 0 91.016 70.178"><defs><style>.a{fill:#e0e0e0}</style></defs><path class="a" d="M17.891 22.541l2.322-2.322-2.322-2.321h-11.6L3.97 20.219l2.321 2.322zM6.286 39.787l-2.321 2.321 2.321 2.322h11.6l2.322-2.322-2.322-2.321zm19.552-17.246h11.6l2.323-2.322-2.323-2.321h-11.6l-2.321 2.321zm-1.648-6.295V2.32L21.868-.001 19.546 2.32v13.926l2.322 2.32zm0 21.877V24.197l-2.322-2.321-2.322 2.321v13.926l2.322 2.319zm-19.548 0V24.197l-2.321-2.321L0 24.197v13.926l2.321 2.319zm14.905 15.808v13.926l2.322 2.321 2.322-2.321V53.931l-2.322-2.321zm-19.548 0v13.926l2.321 2.321 2.321-2.321V53.931L2.32 51.61zm39.094 0v13.926l2.321 2.321 2.323-2.321V53.931l-2.323-2.321zm-21.202-6.289h-11.6l-2.321 2.32 2.321 2.323h11.6l2.322-2.323zm19.547 0h-11.6l-2.321 2.32 2.321 2.323h11.6l2.323-2.323zm29.386 6.289v13.926l2.321 2.321 2.322-2.321V53.931l-2.322-2.321zm-19.549 0v13.926l2.322 2.321 2.322-2.321V53.931l-2.322-2.321zm41.418-2.321l-2.322 2.321v13.926l2.322 2.321 2.322-2.321V53.931zM65.17 47.642h-11.6l-2.322 2.32 2.322 2.323h11.6l2.321-2.323zm19.547 0H73.111l-2.321 2.32 2.321 2.323h11.606l2.321-2.323z"/></svg>