<?xml version="1.0" encoding="utf-8"?>
<!-- Generator: Adobe Illustrator 24.2.3, SVG Export Plug-In . SVG Version: 6.00 Build 0)  -->
<svg version="1.1" id="Layer_1" xmlns="http://www.w3.org/2000/svg" xmlns:xlink="http://www.w3.org/1999/xlink" x="0px" y="0px"
	 viewBox="0 0 366 45.6" style="enable-background:new 0 0 366 45.6;" xml:space="preserve">
<g>
	<path fill="#fe5001" d="M0,30.5h9.6c0,0.7,0,1.2,0,1.7c0,0.4,0.2,1.1,0.5,2.1c0.3,0.9,0.7,1.7,1.2,2.2c0.5,0.6,1.3,1.1,2.4,1.6
		c1.1,0.5,2.4,0.7,3.9,0.7c2.5,0,4.6-0.6,6-1.7c1.5-1.1,2.2-2.6,2.2-4.4c0-1.8-0.6-3-1.7-3.7c-1.1-0.7-3.3-1.4-6.6-2.2
		c-5.6-1.4-9.7-3.1-12.2-5c-2.6-1.9-3.8-4.7-3.8-8.3c0-3.9,1.5-7.1,4.4-9.7C8.6,1.3,13,0,18.7,0c6,0,10.4,1.7,13.2,5.1
		c1.7,2.1,2.5,4.8,2.5,8.1h-9c-0.4-4.4-2.7-6.7-7.1-6.7c-2.2,0-3.9,0.5-5.2,1.6c-1.3,1.1-2,2.5-2,4.3c0,1.9,0.7,3.1,2,3.9
		c1.3,0.7,3.8,1.6,7.5,2.5c1.9,0.4,3.4,0.8,4.5,1.2c1.1,0.3,2.4,0.8,3.9,1.5c1.5,0.7,2.7,1.4,3.5,2.2c0.8,0.8,1.5,1.8,2.1,3.1
		c0.6,1.3,0.9,2.8,0.9,4.4c0,4.1-1.6,7.5-4.9,10.2c-3.3,2.7-7.9,4-13.7,4c-2.3,0-4.4-0.2-6.2-0.6c-1.8-0.4-3.3-0.9-4.5-1.5
		c-1.1-0.6-2.1-1.4-3-2.4c-0.8-1-1.5-1.9-1.9-2.7c-0.4-0.8-0.7-1.8-0.9-2.9c-0.2-1.2-0.4-2-0.4-2.6C0,32.1,0,31.4,0,30.5z"/>
	<path fill="#fe5001" d="M57.7,38.2V44c-2.4,0.6-4.7,1-7,1c-1.7,0-3.2-0.2-4.4-0.7c-1.2-0.4-2.1-0.9-2.7-1.5c-0.6-0.5-1-1.2-1.3-2.1
		c-0.3-0.9-0.5-1.6-0.5-2.1c0-0.5-0.1-1.1-0.1-1.9V20h-5.9v-5.9h5.9v-6l8.9-3.3v9.3h7.3V20h-7.3v13.8c0,0.9,0,1.5,0.1,1.9
		c0.1,0.4,0.2,0.8,0.5,1.3c0.2,0.5,0.6,0.8,1.2,1c0.6,0.2,1.3,0.3,2.3,0.3C55.6,38.3,56.6,38.3,57.7,38.2z"/>
	<path fill="#fe5001" d="M60.8,13.9h9.1v18.2c0,0.8,0,1.4,0,1.8c0,0.4,0.1,1,0.3,1.7c0.2,0.7,0.4,1.3,0.7,1.7c0.3,0.4,0.8,0.8,1.4,1.1
		c0.6,0.3,1.4,0.5,2.3,0.5c1.1,0,2.1-0.2,2.8-0.5c0.7-0.4,1.3-0.8,1.7-1.2c0.4-0.5,0.7-1.2,0.9-2.2c0.2-1,0.3-1.8,0.3-2.5
		c0-0.7,0-1.7,0-3.1V13.9h9.2V34c0,1.9,0.1,3.5,0.1,4.7c0,1.3,0,2.1,0.1,2.5c0,0.4,0,0.7,0,0.9c0,0.7,0.1,1.5,0.2,2.2h-8.7L81,40.4
		c-2.2,3.2-5.2,4.8-9,4.8c-2,0-3.8-0.4-5.4-1.2c-1.6-0.8-2.9-1.8-3.8-2.9c-1.3-1.7-2-4.4-2-8.2V13.9z"/>
	<path fill="#fe5001" d="M114.6,17.7V0.8h9v38.7c0,1.8,0.1,3.4,0.2,5h-9.1l-0.2-4.4c-0.8,1.5-1.9,2.7-3.1,3.4c-1.6,1-3.6,1.6-5.9,1.6
		c-4.1,0-7.3-1.3-9.6-4c-2.3-2.7-3.4-6.4-3.4-11.2c0-5,1.2-9,3.7-11.9c2.5-3,5.7-4.4,9.8-4.4C109.8,13.5,112.6,14.9,114.6,17.7z
		 M101.6,29.6c0,2.8,0.5,5.1,1.5,6.9c1,1.8,2.6,2.7,4.7,2.7c1.2,0,2.4-0.3,3.4-1c1-0.6,1.8-1.5,2.3-2.5c1-1.9,1.5-4.3,1.5-7.2
		c0-2.9-0.6-5.2-1.8-6.8c-1.2-1.6-2.8-2.4-4.9-2.4c-1.4,0-2.6,0.4-3.5,1.1c-0.9,0.7-1.6,1.7-2.1,2.9c-0.4,1.2-0.7,2.3-0.8,3.3
		C101.7,27.6,101.6,28.6,101.6,29.6z"/>
	<path fill="#fe5001" d="M127.5,8.6V0.8h9.6v7.8H127.5z M127.8,44.4V13.8h8.9v30.6H127.8z"/>
	<path fill="#fe5001" d="M139.6,29.4c0-2,0.3-3.9,0.8-5.7c0.5-1.8,1.4-3.5,2.5-5.2s2.8-2.9,4.9-3.9c2.1-1,4.6-1.5,7.5-1.5c5.2,0,9.2,1.5,11.9,4.6
		c2.7,3,4,6.9,4,11.5c0,4.6-1.4,8.5-4.1,11.6c-2.7,3.1-6.7,4.7-11.9,4.7c-4.6,0-8.3-1.4-11.2-4.2C141.1,38.6,139.6,34.6,139.6,29.4z
		 M148.8,29.5c0,6.5,2.2,9.8,6.7,9.8c2.1,0,3.8-0.8,4.9-2.4c1.1-1.6,1.7-4.3,1.7-8.1c0-6.4-2.2-9.7-6.7-9.7
		C151,19.2,148.8,22.6,148.8,29.5z"/>
	<path fill="#fe5001" d="M214.8,24.7h-8.8c-0.4-3.7-1.7-5.6-3.9-5.6c-3.1,0-4.7,3.2-4.7,9.7c0,4.6,0.7,7.8,2.2,9.4c0.6,0.7,1.5,1,2.4,1
		c0.3,0,0.7-0.1,1-0.2c0.3-0.1,0.8-0.4,1.2-0.7c0.5-0.3,0.9-0.9,1.2-1.8c0.3-0.9,0.6-1.9,0.6-3.2h8.8c-0.2,4-1.5,7-3.9,9
		c-2.2,1.9-5.1,2.8-8.7,2.8c-4.6,0-8-1.3-10.4-4.1c-2.6-3-3.9-7-3.9-12c0-2.6,0.4-4.9,1.1-7c0.7-2,1.7-3.6,2.7-4.7
		c1.1-1.1,2.3-2,3.7-2.6c1.4-0.7,2.6-1.1,3.7-1.3c1.1-0.2,2.1-0.3,3.1-0.3c3.3,0,6.1,0.9,8.6,2.8C213.5,18,214.8,20.9,214.8,24.7z"
		/>
	<path fill="#fe5001" d="M217.4,13.9h9.1v18.2c0,0.8,0,1.4,0,1.8c0,0.4,0.1,1,0.3,1.7c0.2,0.7,0.4,1.3,0.7,1.7c0.3,0.4,0.8,0.8,1.4,1.1
		c0.6,0.3,1.4,0.5,2.3,0.5c1.1,0,2.1-0.2,2.8-0.5c0.7-0.4,1.3-0.8,1.7-1.2c0.4-0.5,0.7-1.2,0.9-2.2c0.2-1,0.3-1.8,0.3-2.5
		c0-0.7,0-1.7,0-3.1V13.9h9.2V34c0,1.9,0.1,3.5,0.1,4.7c0,1.3,0,2.1,0.1,2.5c0,0.4,0,0.7,0,0.9c0,0.7,0.1,1.5,0.2,2.2h-8.7l-0.3-4.1
		c-2.2,3.2-5.2,4.8-9,4.8c-2,0-3.8-0.4-5.4-1.2c-1.6-0.8-2.9-1.8-3.8-2.9c-1.3-1.7-2-4.4-2-8.2V13.9z"/>
	<path fill="#fe5001" d="M249.8,44.4V0.7h8.9v43.7H249.8z"/>
	<path fill="#fe5001" d="M282.2,38.2V44c-2.4,0.6-4.7,1-7,1c-1.7,0-3.2-0.2-4.4-0.7c-1.2-0.4-2.1-0.9-2.7-1.5c-0.6-0.5-1-1.2-1.3-2.1
		c-0.3-0.9-0.5-1.6-0.5-2.1c0-0.5-0.1-1.1-0.1-1.9V20h-5.9v-5.9h5.9v-6l8.9-3.3v9.3h7.3V20h-7.3v13.8c0,0.9,0,1.5,0.1,1.9
		c0.1,0.4,0.2,0.8,0.5,1.3c0.2,0.5,0.6,0.8,1.2,1c0.6,0.2,1.3,0.3,2.3,0.3C280.2,38.3,281.2,38.3,282.2,38.2z"/>
	<path fill="#fe5001" d="M285.4,13.9h9.1v18.2c0,0.8,0,1.4,0,1.8c0,0.4,0.1,1,0.3,1.7c0.2,0.7,0.4,1.3,0.7,1.7c0.3,0.4,0.8,0.8,1.4,1.1
		c0.6,0.3,1.4,0.5,2.3,0.5c1.1,0,2.1-0.2,2.8-0.5c0.7-0.4,1.3-0.8,1.7-1.2c0.4-0.5,0.7-1.2,0.9-2.2c0.2-1,0.3-1.8,0.3-2.5
		c0-0.7,0-1.7,0-3.1V13.9h9.2V34c0,1.9,0.1,3.5,0.1,4.7c0,1.3,0,2.1,0.1,2.5c0,0.4,0,0.7,0,0.9c0,0.7,0.1,1.5,0.2,2.2h-8.7l-0.3-4.1
		c-2.2,3.2-5.2,4.8-9,4.8c-2,0-3.8-0.4-5.4-1.2c-1.6-0.8-2.9-1.8-3.8-2.9c-1.3-1.7-2-4.4-2-8.2V13.9z"/>
	<path fill="#fe5001" d="M317.8,44.4v-23c0-2.3-0.1-4.9-0.4-7.6h8.4l0.2,5.9c0.4-0.8,0.7-1.6,1.1-2.1c0.4-0.6,1-1.2,1.7-1.9
		c0.8-0.7,1.8-1.2,3.1-1.5c1.3-0.3,2.8-0.4,4.5-0.4v8c-2.1-0.2-3.9-0.1-5.3,0.2c-1.4,0.4-2.4,1-3,1.9c-0.6,0.9-1,1.7-1.1,2.5
		c-0.2,0.8-0.2,1.8-0.2,3v15.1H317.8z"/>
	<path fill="#fe5001" d="M366,31.4h-20.5c0,5.4,2.1,8.2,6.2,8.2c2.9,0,4.6-1.4,5.3-4.2h8.2c-0.2,2.6-1.2,4.8-2.9,6.7c-2.3,2.4-5.8,3.6-10.7,3.6
		c-4.7,0-8.3-1.3-10.8-3.8c-2.6-2.7-3.9-6.7-3.9-11.9c0-6.7,2.1-11.5,6.3-14.5c2.5-1.7,5.4-2.5,8.6-2.5c2.5,0,4.9,0.6,7.1,1.7
		c2.2,1.1,4,3,5.3,5.7C365.6,23.2,366.2,26.9,366,31.4z M345.8,25.8h11.1c0-0.6,0-1.2-0.1-1.7c-0.1-0.5-0.3-1.3-0.6-2.1
		c-0.3-0.9-0.8-1.6-1.6-2.1c-0.8-0.5-1.8-0.8-3-0.8c-1.9,0-3.3,0.6-4.2,1.9C346.4,22.2,345.9,23.8,345.8,25.8z"/>
</g>
</svg>
