<?xml version="1.0" encoding="UTF-8"?>
<svg width="269px" height="176px" viewBox="0 0 269 176" version="1.1" xmlns="http://www.w3.org/2000/svg" xmlns:xlink="http://www.w3.org/1999/xlink">
    <title>logoSmallBlack</title>
    <g id="Page-1" stroke="none" stroke-width="1" fill="none" fill-rule="evenodd">
        <path d="M79,83 L79,23.49 L48.42,82.45 L41.71,82.45 L11.02,23.49 L11.02,83 L0.9,83 L0.9,0.72 L9.7,0.72 L45.01,67.82 L80.32,0.72 L89.01,0.72 L89.01,83 L79,83 Z M167.33,83 L123.33,19.42 L123.33,83 L113.21,83 L113.21,0.72 L121.68,0.72 L165.9,64.41 L165.9,0.72 L175.91,0.72 L175.91,83 L167.33,83 Z M33.02,93.72 C44.68,93.72 54.195,97.3866667 61.565,104.72 C68.935,112.053333 72.62,122.1 72.62,134.86 C72.62,147.546667 68.88,157.575 61.4,164.945 C53.92,172.315 44.3866667,176 32.8,176 L0.9,176 L0.9,93.72 L33.02,93.72 Z M10.91,167.42 L32.91,167.42 C41.7833333,167.42 48.9516667,164.578333 54.415,158.895 C59.8783333,153.211667 62.61,145.2 62.61,134.86 C62.61,124.52 59.915,116.508333 54.525,110.825 C49.135,105.141667 42.0033333,102.3 33.13,102.3 L10.91,102.3 L10.91,167.42 Z M146.21,176 L146.21,137.83 L103.31,137.83 L103.31,176 L93.19,176 L93.19,93.72 L103.31,93.72 L103.31,128.81 L146.21,128.81 L146.21,93.72 L156.22,93.72 L156.22,176 L146.21,176 Z M180.42,176 L180.42,93.61 L208.14,93.61 C216.28,93.61 223.246667,96.4883333 229.04,102.245 C234.833333,108.001667 237.73,114.95 237.73,123.09 C237.73,129.69 235.786667,135.575 231.9,140.745 C228.013333,145.915 222.99,149.453333 216.83,151.36 L236.74,176 L224.75,176 L190.54,133.76 L190.65,176 L180.42,176 Z M209.79,142.67 C214.996667,142.156667 219.36,140.048333 222.88,136.345 C226.4,132.641667 228.16,128.223333 228.16,123.09 C228.16,117.516667 226.216667,112.768333 222.33,108.845 C218.443333,104.921667 213.713333,102.96 208.14,102.96 L190.54,102.96 L190.54,118.8 L209.79,142.67 Z M258.41,176 L258.41,93.72 L268.53,93.72 L268.53,176 L258.41,176 Z" id="logoSmallBlack" fill="#000000" fill-rule="nonzero"></path>
    </g>
</svg>