<?xml version="1.0" encoding="UTF-8"?>
<svg width="569px" height="83px" viewBox="0 0 569 83" version="1.1" xmlns="http://www.w3.org/2000/svg" xmlns:xlink="http://www.w3.org/1999/xlink">
    <title>logoFullWhite</title>
    <g id="Page-1" stroke="none" stroke-width="1" fill="none" fill-rule="evenodd">
        <path d="M79,83 L79,23.49 L48.42,82.45 L41.71,82.45 L11.02,23.49 L11.02,83 L0.9,83 L0.9,0.72 L9.7,0.72 L45.01,67.82 L80.32,0.72 L89.01,0.72 L89.01,83 L79,83 Z M161.4,83 L152.82,62.1 L114.65,62.1 L105.96,83 L94.96,83 L129.39,0.72 L137.97,0.72 L172.4,83 L161.4,83 Z M149.08,53.3 L133.79,16.23 L118.39,53.3 L149.08,53.3 Z M232.58,83 L188.58,19.42 L188.58,83 L178.46,83 L178.46,0.72 L186.93,0.72 L231.15,64.41 L231.15,0.72 L241.16,0.72 L241.16,83 L232.58,83 Z M287.48,0.72 C299.14,0.72 308.655,4.38666667 316.025,11.72 C323.395,19.0533333 327.08,29.1 327.08,41.86 C327.08,54.5466667 323.34,64.575 315.86,71.945 C308.38,79.315 298.846667,83 287.26,83 L255.36,83 L255.36,0.72 L287.48,0.72 Z M265.37,74.42 L287.37,74.42 C296.243333,74.42 303.411667,71.5783333 308.875,65.895 C314.338333,60.2116667 317.07,52.2 317.07,41.86 C317.07,31.52 314.375,23.5083333 308.985,17.825 C303.595,12.1416667 296.463333,9.3 287.59,9.3 L265.37,9.3 L265.37,74.42 Z M390.67,83 L390.67,44.83 L347.77,44.83 L347.77,83 L337.65,83 L337.65,0.72 L347.77,0.72 L347.77,35.81 L390.67,35.81 L390.67,0.72 L400.68,0.72 L400.68,83 L390.67,83 Z M473.07,83 L464.49,62.1 L426.32,62.1 L417.63,83 L406.63,83 L441.06,0.72 L449.64,0.72 L484.07,83 L473.07,83 Z M460.75,53.3 L445.46,16.23 L430.06,53.3 L460.75,53.3 Z M490.13,83 L490.13,0.61 L517.85,0.61 C525.99,0.61 532.956667,3.48833333 538.75,9.245 C544.543333,15.0016667 547.44,21.95 547.44,30.09 C547.44,36.69 545.496667,42.575 541.61,47.745 C537.723333,52.915 532.7,56.4533333 526.54,58.36 L546.45,83 L534.46,83 L500.25,40.76 L500.36,83 L490.13,83 Z M519.5,49.67 C524.706667,49.1566667 529.07,47.0483333 532.59,43.345 C536.11,39.6416667 537.87,35.2233333 537.87,30.09 C537.87,24.5166667 535.926667,19.7683333 532.04,15.845 C528.153333,11.9216667 523.423333,9.96 517.85,9.96 L500.25,9.96 L500.25,25.8 L519.5,49.67 Z M558.12,83 L558.12,0.72 L568.24,0.72 L568.24,83 L558.12,83 Z" id="logoFullWhite" fill="#FFFFFF" fill-rule="nonzero"></path>
    </g>
</svg>